<svg xmlns="http://www.w3.org/2000/svg" width="960" height="265"
            viewBox="0 0 960 265"
            role="img"
            aria-label="CMND curves for a strong D1 frame and a weak sub-octave frame"
          ><rect width="960" height="265" fill="white"/>
            <g font-family="system-ui, sans-serif" font-size="12">
              <!-- panel frames -->
              <g stroke="#d1d5db" fill="none">
                <line x1="60" y1="30" x2="60" y2="190" />
                <line x1="60" y1="190" x2="450" y2="190" />
                <line x1="560" y1="30" x2="560" y2="190" />
                <line x1="560" y1="190" x2="950" y2="190" />
              </g>
              <text x="60" y="20" font-weight="600">
                frame 17 · sustained D1 · t ≈ 0.20 s
              </text>
              <text x="560" y="20" font-weight="600">
                frame 188 · C#2 attack onset · t ≈ 2.18 s
              </text>
              <text x="46" y="34" text-anchor="end" fill="#6b7280">1.6</text>
              <text x="46" y="194" text-anchor="end" fill="#6b7280">0</text>
              <text
                x="30"
                y="115"
                text-anchor="middle"
                fill="#6b7280"
                transform="rotate(-90 30 115)"
              >
                d′(τ)
              </text>
              <!-- x ticks: tau 100,300,500,700 -->
              <g fill="#9ca3af" text-anchor="middle">
                <text x="85.9" y="206">τ=100</text>
                <text x="200.7" y="206">300</text>
                <text x="315.6" y="206">500</text>
                <text x="430.4" y="206">700</text>
                <text x="85.9" y="220">220 Hz</text>
                <text x="200.7" y="220">73.5</text>
                <text x="315.6" y="220">44.1</text>
                <text x="430.4" y="220">31.5</text>
                <text x="585.9" y="206">τ=100</text>
                <text x="700.7" y="206">300</text>
                <text x="815.6" y="206">500</text>
                <text x="930.4" y="206">700</text>
                <text x="585.9" y="220">220 Hz</text>
                <text x="700.7" y="220">73.5</text>
                <text x="815.6" y="220">44.1</text>
                <text x="930.4" y="220">31.5</text>
              </g>
              <!-- beta prior density bars (shared y scale, at left of each panel) -->
              <g fill="#7c3aed" fill-opacity="0.45">
                <rect x="61" y="186.4" width="29.1" height="3.2" />
                <rect x="61" y="182.4" width="43.0" height="3.2" />
                <rect x="61" y="178.4" width="34.2" height="3.2" />
                <rect x="61" y="174.4" width="22.1" height="3.2" />
                <rect x="61" y="170.4" width="12.7" height="3.2" />
                <rect x="61" y="166.4" width="6.6" height="3.2" />
                <rect x="61" y="162.4" width="3.2" height="3.2" />
                <rect x="61" y="158.4" width="1.4" height="3.2" />
                <rect x="61" y="154.4" width="0.6" height="3.2" />
                <rect x="561" y="186.4" width="29.1" height="3.2" />
                <rect x="561" y="182.4" width="43.0" height="3.2" />
                <rect x="561" y="178.4" width="34.2" height="3.2" />
                <rect x="561" y="174.4" width="22.1" height="3.2" />
                <rect x="561" y="170.4" width="12.7" height="3.2" />
                <rect x="561" y="166.4" width="6.6" height="3.2" />
                <rect x="561" y="162.4" width="3.2" height="3.2" />
                <rect x="561" y="158.4" width="1.4" height="3.2" />
                <rect x="561" y="154.4" width="0.6" height="3.2" />
              </g>
              <text x="118" y="176" fill="#7c3aed" font-size="11">
                Beta(2,18) threshold prior
              </text>
              <text x="618" y="176" fill="#7c3aed" font-size="11">
                Beta(2,18) threshold prior
              </text>
              <!-- classic YIN threshold -->
              <line
                x1="60"
                y1="180"
                x2="450"
                y2="180"
                stroke="#9ca3af"
                stroke-dasharray="4 4"
              />
              <line
                x1="560"
                y1="180"
                x2="950"
                y2="180"
                stroke="#9ca3af"
                stroke-dasharray="4 4"
              />
              <text x="452" y="177" fill="#9ca3af" font-size="11">0.1</text>
              <!-- curves -->
              <polyline
                points="60.0,30.0 61.1,30.0 62.3,30.0 63.4,30.0 64.6,30.0 65.7,30.0 66.9,30.0 68.0,30.0 69.2,30.0 70.3,30.0 71.5,30.0 72.6,30.0 73.8,30.0 74.9,30.0 76.1,30.0 77.2,30.0 78.4,30.0 79.5,30.0 80.6,30.0 81.8,30.0 82.9,30.0 84.1,30.0 85.2,30.0 86.4,30.0 87.5,30.0 88.7,30.0 89.8,30.0 91.0,30.0 92.1,30.0 93.3,30.0 94.4,30.0 95.6,30.0 96.7,30.0 97.9,30.0 99.0,30.0 100.1,30.0 101.3,30.0 102.4,30.0 103.6,30.0 104.7,30.0 105.9,30.0 107.0,30.0 108.2,30.0 109.3,30.0 110.5,30.0 111.6,30.0 112.8,30.0 113.9,30.0 115.1,30.0 116.2,30.0 117.4,30.0 118.5,30.0 119.6,30.0 120.8,30.0 121.9,30.0 123.1,30.0 124.2,30.0 125.4,30.0 126.5,30.0 127.7,30.0 128.8,30.0 130.0,30.0 131.1,30.0 132.3,30.0 133.4,30.0 134.6,30.0 135.7,30.0 136.9,30.0 138.0,30.0 139.1,30.0 140.3,30.0 141.4,30.0 142.6,30.0 143.7,30.0 144.9,30.0 146.0,30.0 147.2,30.0 148.3,30.0 149.5,30.0 150.6,30.0 151.8,30.0 152.9,30.0 154.1,30.0 155.2,30.0 156.4,30.0 157.5,30.0 158.6,30.0 159.8,30.0 160.9,30.0 162.1,30.0 163.2,30.0 164.4,30.0 165.5,30.0 166.7,30.0 167.8,30.0 169.0,30.0 170.1,30.0 171.3,30.0 172.4,30.0 173.6,30.0 174.7,30.0 175.9,30.0 177.0,30.0 178.1,30.0 179.3,30.0 180.4,30.0 181.6,30.0 182.7,30.0 183.9,30.0 185.0,30.0 186.2,30.0 187.3,30.0 188.5,30.0 189.6,30.0 190.8,30.0 191.9,30.0 193.1,30.0 194.2,30.0 195.4,30.4 196.5,31.5 197.6,32.6 198.8,33.6 199.9,34.7 201.1,35.7 202.2,36.7 203.4,37.7 204.5,38.6 205.7,39.6 206.8,40.5 208.0,41.5 209.1,42.4 210.3,43.3 211.4,44.3 212.6,45.2 213.7,46.1 214.9,47.0 216.0,47.9 217.1,48.7 218.3,49.6 219.4,50.5 220.6,51.3 221.7,52.2 222.9,53.0 224.0,53.9 225.2,54.7 226.3,55.5 227.5,56.3 228.6,57.1 229.8,57.9 230.9,58.7 232.1,59.5 233.2,60.2 234.4,61.0 235.5,61.8 236.6,62.5 237.8,63.3 238.9,64.0 240.1,64.8 241.2,65.5 242.4,66.2 243.5,67.0 244.7,67.7 245.8,68.4 247.0,69.1 248.1,69.9 249.3,70.6 250.4,71.3 251.6,72.0 252.7,72.7 253.9,73.4 255.0,74.1 256.1,74.8 257.3,75.5 258.4,76.2 259.6,76.9 260.7,77.6 261.9,78.3 263.0,79.0 264.2,79.7 265.3,80.5 266.5,81.2 267.6,82.0 268.8,82.7 269.9,83.5 271.1,84.2 272.2,85.0 273.4,85.8 274.5,86.6 275.6,87.3 276.8,88.1 277.9,88.9 279.1,89.7 280.2,90.5 281.4,91.4 282.5,92.2 283.7,93.1 284.8,93.9 286.0,94.8 287.1,95.7 288.3,96.6 289.4,97.5 290.6,98.5 291.7,99.4 292.9,100.4 294.0,101.4 295.1,102.4 296.3,103.4 297.4,104.4 298.6,105.4 299.7,106.4 300.9,107.5 302.0,108.6 303.2,109.7 304.3,110.8 305.5,111.9 306.6,113.1 307.8,114.2 308.9,115.4 310.1,116.6 311.2,117.8 312.4,119.0 313.5,120.2 314.6,121.4 315.8,122.7 316.9,123.9 318.1,125.2 319.2,126.5 320.4,127.8 321.5,129.1 322.7,130.4 323.8,131.7 325.0,133.1 326.1,134.4 327.3,135.7 328.4,137.1 329.6,138.5 330.7,139.8 331.9,141.2 333.0,142.6 334.1,144.0 335.3,145.4 336.4,146.8 337.6,148.2 338.7,149.6 339.9,151.0 341.0,152.4 342.2,153.8 343.3,155.1 344.5,156.5 345.6,157.9 346.8,159.3 347.9,160.7 349.1,162.0 350.2,163.3 351.4,164.7 352.5,166.0 353.6,167.3 354.8,168.5 355.9,169.8 357.1,171.0 358.2,172.2 359.4,173.4 360.5,174.6 361.7,175.7 362.8,176.7 364.0,177.8 365.1,178.8 366.3,179.8 367.4,180.7 368.6,181.6 369.7,182.4 370.9,183.2 372.0,183.9 373.1,184.6 374.3,185.2 375.4,185.8 376.6,186.3 377.7,186.7 378.9,187.1 380.0,187.4 381.2,187.6 382.3,187.8 383.5,187.9 384.6,187.9 385.8,187.9 386.9,187.8 388.1,187.6 389.2,187.3 390.4,187.0 391.5,186.6 392.6,186.1 393.8,185.5 394.9,184.8 396.1,184.1 397.2,183.3 398.4,182.4 399.5,181.5 400.7,180.4 401.8,179.3 403.0,178.1 404.1,176.9 405.3,175.5 406.4,174.1 407.6,172.6 408.7,171.1 409.9,169.5 411.0,167.8 412.1,166.0 413.3,164.2 414.4,162.4 415.6,160.4 416.7,158.5 417.9,156.4 419.0,154.4 420.2,152.2 421.3,150.1 422.5,147.8 423.6,145.6 424.8,143.3 425.9,141.0 427.1,138.6 428.2,136.2 429.4,133.8 430.5,131.3 431.6,128.8 432.8,126.3 433.9,123.8 435.1,121.2 436.2,118.7 437.4,116.1 438.5,113.6 439.7,111.0 440.8,108.4 442.0,105.8 443.1,103.2 444.3,100.6 445.4,98.0 446.6,95.5 447.7,92.9 448.9,90.3 450.0,87.8"
                fill="none"
                stroke="#374151"
                stroke-width="1.6"
              />
              <polyline
                points="560.0,45.2 561.1,48.9 562.3,51.6 563.4,53.8 564.6,54.5 565.7,53.8 566.9,52.8 568.0,52.0 569.2,51.4 570.3,50.8 571.5,49.6 572.6,48.9 573.8,48.9 574.9,48.8 576.1,48.3 577.2,46.4 578.4,43.1 579.5,39.2 580.6,35.8 581.8,34.2 582.9,34.2 584.1,35.0 585.2,35.5 586.4,36.1 587.5,37.6 588.7,39.5 589.8,40.7 591.0,40.7 592.1,39.8 593.3,39.4 594.4,39.4 595.6,39.0 596.7,38.7 597.9,39.4 599.0,41.3 600.1,43.5 601.3,44.3 602.4,43.7 603.6,42.5 604.7,41.4 605.9,40.7 607.0,40.4 608.2,41.1 609.3,42.8 610.5,44.4 611.6,45.6 612.8,46.5 613.9,47.0 615.1,47.2 616.2,47.1 617.4,47.4 618.5,48.2 619.6,49.8 620.8,52.1 621.9,54.6 623.1,56.9 624.2,59.1 625.4,61.0 626.5,62.1 627.7,62.3 628.8,62.3 630.0,62.9 631.1,63.8 632.3,65.0 633.4,66.7 634.6,68.4 635.7,70.1 636.9,72.1 638.0,74.1 639.1,75.2 640.3,74.9 641.4,74.4 642.6,74.4 643.7,75.0 644.9,76.4 646.0,78.0 647.2,80.0 648.3,82.8 649.5,85.6 650.6,87.5 651.8,88.2 652.9,88.4 654.1,89.1 655.2,90.6 656.4,92.3 657.5,93.6 658.6,95.2 659.8,97.2 660.9,99.0 662.1,100.5 663.2,101.3 664.4,101.4 665.5,101.2 666.7,100.6 667.8,99.6 669.0,98.2 670.1,96.4 671.3,94.7 672.4,92.7 673.6,90.8 674.7,89.0 675.9,86.9 677.0,84.4 678.1,81.4 679.3,78.8 680.4,77.0 681.6,75.5 682.7,74.5 683.9,74.4 685.0,75.1 686.2,76.3 687.3,77.4 688.5,78.1 689.6,78.8 690.8,79.6 691.9,81.0 693.1,83.1 694.2,85.6 695.4,88.5 696.5,91.8 697.6,95.8 698.8,100.0 699.9,104.0 701.1,107.9 702.2,111.5 703.4,115.3 704.5,119.4 705.7,123.2 706.8,126.6 708.0,129.9 709.1,133.3 710.3,136.3 711.4,138.0 712.6,137.4 713.7,135.0 714.9,132.1 716.0,128.8 717.1,125.1 718.3,121.3 719.4,117.7 720.6,114.5 721.7,111.8 722.9,109.0 724.0,105.9 725.2,102.7 726.3,99.7 727.5,97.2 728.6,95.3 729.8,94.1 730.9,93.9 732.1,94.5 733.2,95.4 734.4,96.5 735.5,97.6 736.6,98.3 737.8,98.3 738.9,98.1 740.1,98.3 741.2,99.2 742.4,101.0 743.5,103.0 744.7,105.1 745.8,107.5 747.0,110.0 748.1,112.3 749.3,114.2 750.4,115.8 751.6,117.2 752.7,118.2 753.9,118.7 755.0,119.3 756.1,119.6 757.3,119.8 758.4,119.9 759.6,119.5 760.7,118.8 761.9,117.9 763.0,116.6 764.2,115.1 765.3,113.8 766.5,112.6 767.6,111.1 768.8,109.3 769.9,108.1 771.1,107.6 772.2,107.7 773.4,107.8 774.5,107.4 775.6,106.8 776.8,106.2 777.9,105.4 779.1,104.8 780.2,104.3 781.4,104.8 782.5,105.9 783.7,106.8 784.8,107.0 786.0,106.2 787.1,104.9 788.3,103.3 789.4,101.8 790.6,100.7 791.7,99.8 792.9,99.3 794.0,99.2 795.1,99.1 796.3,98.7 797.4,97.9 798.6,96.4 799.7,94.2 800.9,91.3 802.0,88.4 803.2,86.1 804.3,84.7 805.5,84.0 806.6,83.6 807.8,83.1 808.9,82.5 810.1,81.1 811.2,78.9 812.4,76.6 813.5,74.7 814.6,73.7 815.8,73.3 816.9,73.3 818.1,73.8 819.2,74.3 820.4,75.0 821.5,75.9 822.7,76.7 823.8,77.7 825.0,78.7 826.1,79.8 827.3,81.0 828.4,82.3 829.6,83.4 830.7,84.6 831.9,86.1 833.0,87.7 834.1,88.9 835.3,89.5 836.4,90.0 837.6,90.5 838.7,91.4 839.9,92.3 841.0,92.9 842.2,93.5 843.3,94.4 844.5,95.4 845.6,96.1 846.8,96.2 847.9,95.7 849.1,95.0 850.2,94.1 851.4,93.1 852.5,92.0 853.6,90.9 854.8,89.9 855.9,88.7 857.1,87.3 858.2,85.6 859.4,83.6 860.5,81.4 861.7,79.1 862.8,76.8 864.0,75.1 865.1,74.0 866.3,73.4 867.4,73.0 868.6,73.3 869.7,74.4 870.9,76.2 872.0,78.4 873.1,80.5 874.3,82.8 875.4,85.4 876.6,88.3 877.7,91.7 878.9,95.8 880.0,100.3 881.2,105.2 882.3,110.1 883.5,114.9 884.6,119.5 885.8,123.8 886.9,128.2 888.1,132.5 889.2,136.6 890.4,140.3 891.5,143.6 892.6,146.5 893.8,148.6 894.9,149.1 896.1,147.9 897.2,145.0 898.4,141.2 899.5,136.8 900.7,132.3 901.8,127.8 903.0,123.8 904.1,120.4 905.3,117.4 906.4,114.3 907.6,111.0 908.7,107.5 909.9,104.1 911.0,101.4 912.1,99.5 913.3,98.7 914.4,99.0 915.6,100.1 916.7,101.3 917.9,102.5 919.0,103.4 920.2,104.0 921.3,104.3 922.5,104.3 923.6,104.4 924.8,105.0 925.9,106.3 927.1,108.2 928.2,110.5 929.4,112.7 930.5,114.7 931.6,116.4 932.8,117.7 933.9,118.5 935.1,119.2 936.2,119.9 937.4,120.5 938.5,120.8 939.7,120.5 940.8,119.7 942.0,118.2 943.1,116.4 944.3,114.2 945.4,111.8 946.6,109.5 947.7,107.3 948.9,105.4 950.0,103.7"
                fill="none"
                stroke="#374151"
                stroke-width="1.6"
              />
              <!-- troughs -->
              <circle cx="384.6" cy="187.9" r="5" fill="#059669" />
              <text
                x="384.6"
                y="242"
                text-anchor="middle"
                fill="#065f46"
                font-size="12"
                font-weight="600"
              >
                τ=621 · 35.5 Hz ≈ D1 · d′=0.021 → voiced p ≈ 0.95
              </text>
              <circle cx="894.9" cy="149.1" r="5" fill="#ea580c" />
              <text
                x="770"
                y="242"
                text-anchor="middle"
                fill="#9a3412"
                font-size="12"
                font-weight="600"
              >
                τ=639 · 34.5 Hz ≈ C#1 sub-octave · d′=0.41 → p ≈ 0.01
              </text>
              <line
                x1="384.6"
                y1="230"
                x2="384.6"
                y2="196"
                stroke="#059669"
                stroke-width="1"
              />
              <line
                x1="870"
                y1="230"
                x2="892"
                y2="158"
                stroke="#ea580c"
                stroke-width="1"
              />
            </g>
          </svg>
